%TF.GenerationSoftware,Altium Limited,Altium Designer,25.2.1 (25)*%
G04 Layer_Color=0*
%FSLAX45Y45*%
%MOMM*%
%TF.SameCoordinates,33AE00C6-E728-4630-B133-C83FF553AC26*%
%TF.FilePolarity,Positive*%
%TF.FileFunction,Plated,1,2,PTH,Drill*%
%TF.Part,Single*%
G01*
G75*
%TA.AperFunction,ComponentDrill*%
%ADD49C,0.90000*%
%ADD50C,0.70000*%
%ADD51C,1.10000*%
%ADD52C,1.10000*%
%ADD53C,1.30000*%
%ADD54C,1.30000*%
%ADD55C,0.75000*%
%ADD56C,0.70000*%
%ADD57C,0.80000*%
%ADD58C,0.80000*%
%ADD59C,1.00000*%
%TA.AperFunction,ViaDrill,NotFilled*%
%ADD60C,0.71120*%
D49*
X2325000Y2300000D02*
D03*
X1825000D02*
D03*
D50*
X1950000Y5750000D02*
D03*
Y5500000D02*
D03*
X3675000Y2850000D02*
D03*
Y2600000D02*
D03*
D51*
X450000Y2115000D02*
D03*
X850000Y2285000D02*
D03*
X450000Y2455000D02*
D03*
X850000Y2625000D02*
D03*
X450000Y2795000D02*
D03*
X13850000Y5027000D02*
D03*
Y4773000D02*
D03*
Y3023000D02*
D03*
Y3277000D02*
D03*
D52*
X3225000Y6300000D02*
D03*
X2971000D02*
D03*
D53*
X550000Y3721000D02*
D03*
Y4229000D02*
D03*
D54*
X11321000Y7525000D02*
D03*
X11829000D02*
D03*
X11825000Y475000D02*
D03*
X11317000D02*
D03*
D55*
X1100000Y450000D02*
D03*
Y1450000D02*
D03*
X475000D02*
D03*
Y450000D02*
D03*
D56*
X12950000Y3450000D02*
D03*
X12700000D02*
D03*
X12950000Y4575000D02*
D03*
X12700000D02*
D03*
D57*
X825000Y5317000D02*
D03*
Y5825000D02*
D03*
Y6333000D02*
D03*
Y6841000D02*
D03*
D58*
X1725000Y450000D02*
D03*
Y1450000D02*
D03*
D59*
X2100000Y3625000D02*
D03*
Y3125000D02*
D03*
D60*
X13575000Y3175000D02*
D03*
X13500000Y4800000D02*
D03*
X800000Y4225000D02*
D03*
X3225000Y2575000D02*
D03*
X11475000Y3800000D02*
D03*
X10925000Y5000000D02*
D03*
X12075000Y4400000D02*
D03*
Y3725000D02*
D03*
X775000Y425000D02*
D03*
X175000Y2675000D02*
D03*
X2450000Y3150000D02*
D03*
X2725000Y5700000D02*
D03*
%TF.MD5,2254826db5d395a3e8ca6370033b9993*%
M02*
