%TF.GenerationSoftware,Altium Limited,Altium Designer,25.2.1 (25)*%
G04 Layer_Physical_Order=1*
G04 Layer_Color=255*
%FSLAX45Y45*%
%MOMM*%
%TF.SameCoordinates,46C3323E-FFC6-4886-B46B-F64B06BA1E65*%
%TF.FilePolarity,Positive*%
%TF.FileFunction,Copper,L1,Top,Signal*%
%TF.Part,Single*%
G01*
G75*
%TA.AperFunction,Conductor*%
%ADD10C,1.27000*%
%ADD11C,2.99999*%
%TA.AperFunction,ComponentPad*%
%ADD12C,1.35000*%
%ADD13R,1.20000X1.20000*%
%ADD14C,1.20000*%
%ADD15C,1.70000*%
%ADD16R,1.70000X1.70000*%
%ADD17C,1.60000*%
G04:AMPARAMS|DCode=18|XSize=1.6mm|YSize=1.6mm|CornerRadius=0.4mm|HoleSize=0mm|Usage=FLASHONLY|Rotation=0.000|XOffset=0mm|YOffset=0mm|HoleType=Round|Shape=RoundedRectangle|*
%AMROUNDEDRECTD18*
21,1,1.60000,0.80000,0,0,0.0*
21,1,0.80000,1.60000,0,0,0.0*
1,1,0.80000,0.40000,-0.40000*
1,1,0.80000,-0.40000,-0.40000*
1,1,0.80000,-0.40000,0.40000*
1,1,0.80000,0.40000,0.40000*
%
%ADD18ROUNDEDRECTD18*%
G04:AMPARAMS|DCode=19|XSize=1.6mm|YSize=1.6mm|CornerRadius=0.4mm|HoleSize=0mm|Usage=FLASHONLY|Rotation=90.000|XOffset=0mm|YOffset=0mm|HoleType=Round|Shape=RoundedRectangle|*
%AMROUNDEDRECTD19*
21,1,1.60000,0.80000,0,0,90.0*
21,1,0.80000,1.60000,0,0,90.0*
1,1,0.80000,0.40000,0.40000*
1,1,0.80000,0.40000,-0.40000*
1,1,0.80000,-0.40000,-0.40000*
1,1,0.80000,-0.40000,0.40000*
%
%ADD19ROUNDEDRECTD19*%
%ADD20C,1.80000*%
%ADD21R,1.80000X1.80000*%
%ADD22R,1.80000X1.80000*%
%ADD23C,1.25000*%
%ADD24R,1.25000X1.25000*%
%ADD25R,1.20000X1.20000*%
%ADD26C,1.30000*%
%ADD27R,1.30000X1.30000*%
%ADD28R,1.30000X1.30000*%
%ADD29C,1.55000*%
%ADD30R,1.55000X1.55000*%
%TA.AperFunction,TestPad*%
%ADD31C,3.00000*%
D10*
X11317000Y475000D02*
Y3183000D01*
X1950000Y4700000D02*
X1950000Y4700000D01*
X825000Y5317000D02*
X1333000D01*
X1950000Y4700000D02*
Y5500000D01*
X1333000Y5317000D02*
X1950000Y4700000D01*
X1250000Y4600000D02*
X1250000Y4600000D01*
X1600000D01*
X1250000Y4600000D02*
Y4700000D01*
X750000Y2625000D02*
X1675000D01*
Y2925000D01*
X1425000Y3175000D02*
X1675000Y2925000D01*
Y2625000D02*
X1800000D01*
X8734474Y3500000D02*
X8961874Y3727400D01*
X10772600D02*
X11317000Y3183000D01*
X4200000Y3500000D02*
X8734474D01*
X8961874Y3727400D02*
X10772600D01*
X4975000Y4050000D02*
X5000000Y4025000D01*
X4975000Y4050000D02*
Y4250605D01*
X5049395Y4325000D01*
X5450000D01*
X5000000Y4025000D02*
X13850000D01*
X4200000Y3250000D02*
Y3500000D01*
Y3250000D02*
X4250133Y3199866D01*
X4300000Y3150000D01*
X4650000D01*
X3825000Y4700000D02*
Y5000000D01*
X3950000Y5125000D01*
X4050000D01*
X3825000Y4700000D02*
X11700605D01*
X1975000Y2300000D02*
Y2302165D01*
X1849867Y2427298D02*
X1975000Y2302165D01*
X1849867Y2427298D02*
Y2575133D01*
X1800000Y2625000D02*
X1849867Y2575133D01*
X2475000Y2300000D02*
X3000000D01*
Y2775605D01*
X13841071Y3023000D02*
X13850000D01*
X13843686Y3016686D02*
X13850000Y3023000D01*
X11829000Y4828395D02*
Y7525000D01*
X11700605Y4700000D02*
X11829000Y4828395D01*
X1950000Y4700000D02*
X3825000D01*
X3218686Y6293686D02*
X3225000Y6300000D01*
X3218686Y6168081D02*
Y6293686D01*
X3150605Y6100000D02*
X3218686Y6168081D01*
X1450000Y6100000D02*
X3150605D01*
X1350000Y6000000D02*
X1450000Y6100000D01*
X1350000Y5899395D02*
Y6000000D01*
X1275605Y5825000D02*
X1350000Y5899395D01*
X825000Y5825000D02*
X1275605D01*
X825000Y6333000D02*
X825812D01*
X858812Y6300000D01*
X2971000D01*
X823500Y6842500D02*
X825000Y6841000D01*
X569500Y6842500D02*
X823500D01*
X562000Y6850000D02*
X569500Y6842500D01*
X350000Y6850000D02*
X562000D01*
X275000Y6775000D02*
X350000Y6850000D01*
X275000Y4924395D02*
Y6775000D01*
Y4924395D02*
X349395Y4850000D01*
X925000D01*
X975000Y4800000D01*
X1150000D01*
X1250000Y4700000D01*
Y4025000D02*
Y4600000D01*
X12950000Y3450000D02*
X13850000D01*
Y4025000D01*
Y3277000D02*
Y3450000D01*
X13825000Y4575000D02*
X13850000Y4550000D01*
X12950000Y4575000D02*
X13825000D01*
X13850000Y4550000D02*
Y4773000D01*
X1021000Y3825000D02*
X1050000D01*
X1250000Y4025000D01*
X5000000D01*
X13850000D02*
Y4550000D01*
X1075000Y3625000D02*
X1095395Y3645395D01*
Y3750605D01*
X1021000Y3825000D02*
X1095395Y3750605D01*
X800000Y3825000D02*
X1021000D01*
X3074395Y3500000D02*
X4200000D01*
X3000000Y3425605D02*
X3074395Y3500000D01*
X3000000Y2775605D02*
Y3425605D01*
X3074395Y2850000D02*
X3675000D01*
X3000000Y2775605D02*
X3074395Y2850000D01*
X3000000Y1924395D02*
Y2300000D01*
X2925605Y1850000D02*
X3000000Y1924395D01*
X2325000Y1850000D02*
X2925605D01*
X600000Y1750000D02*
X1100000D01*
X475000Y1625000D02*
X600000Y1750000D01*
X475000Y1450000D02*
Y1625000D01*
X850000Y2285000D02*
X1340605D01*
X1450000Y2175605D01*
Y1899395D02*
Y2175605D01*
X1375605Y1825000D02*
X1450000Y1899395D01*
X1175000Y1825000D02*
X1375605D01*
X1100000Y1750000D02*
X1175000Y1825000D01*
X1100000Y1450000D02*
Y1750000D01*
Y1450000D02*
X1725000D01*
X1100000Y450000D02*
X1725000D01*
X2325000Y1050000D01*
Y1850000D01*
X1050000Y3600000D02*
X1075000Y3625000D01*
X2325000D01*
X450000Y2795000D02*
Y3275605D01*
X524395Y3350000D01*
X975605D01*
X1050000Y3424395D01*
Y3600000D01*
D11*
X696000Y3721000D02*
X800000Y3825000D01*
X550000Y3721000D02*
X696000D01*
D12*
X2475000Y2300000D02*
D03*
X1975000D02*
D03*
D13*
X1950000Y5750000D02*
D03*
X3675000Y2600000D02*
D03*
D14*
X1950000Y5500000D02*
D03*
X12950000Y3450000D02*
D03*
Y4575000D02*
D03*
X3675000Y2850000D02*
D03*
D15*
X350000Y2115000D02*
D03*
X750000Y2285000D02*
D03*
X350000Y2455000D02*
D03*
X750000Y2625000D02*
D03*
D16*
X350000Y2795000D02*
D03*
D17*
X3225000Y6300000D02*
D03*
X13850000Y5027000D02*
D03*
Y3023000D02*
D03*
D18*
X2971000Y6300000D02*
D03*
D19*
X13850000Y4773000D02*
D03*
Y3277000D02*
D03*
D20*
X550000Y3721000D02*
D03*
X11321000Y7525000D02*
D03*
X11825000Y475000D02*
D03*
D21*
X550000Y4229000D02*
D03*
D22*
X11829000Y7525000D02*
D03*
X11317000Y475000D02*
D03*
D23*
X1100000Y450000D02*
D03*
X475000Y1450000D02*
D03*
D24*
X1100000D02*
D03*
X475000Y450000D02*
D03*
D25*
X12700000Y3450000D02*
D03*
Y4575000D02*
D03*
D26*
X825000Y5317000D02*
D03*
Y5825000D02*
D03*
Y6333000D02*
D03*
X1725000Y450000D02*
D03*
D27*
X825000Y6841000D02*
D03*
D28*
X1725000Y1450000D02*
D03*
D29*
X2325000Y3625000D02*
D03*
D30*
Y3125000D02*
D03*
D31*
X1600000Y4600000D02*
D03*
X1425000Y3175000D02*
D03*
X5450000Y4325000D02*
D03*
X4650000Y3150000D02*
D03*
X4050000Y5125000D02*
D03*
%TF.MD5,07e98a1c8cfa455e693e591e26f18ba8*%
M02*
