%TF.GenerationSoftware,Altium Limited,Altium Designer,25.2.1 (25)*%
G04 Layer_Physical_Order=2*
G04 Layer_Color=16711680*
%FSLAX45Y45*%
%MOMM*%
%TF.SameCoordinates,46C3323E-FFC6-4886-B46B-F64B06BA1E65*%
%TF.FilePolarity,Positive*%
%TF.FileFunction,Copper,L2,Bot,Signal*%
%TF.Part,Single*%
G01*
G75*
%TA.AperFunction,ComponentPad*%
%ADD12C,1.35000*%
%ADD13R,1.20000X1.20000*%
%ADD14C,1.20000*%
%ADD15C,1.70000*%
%ADD16R,1.70000X1.70000*%
%ADD17C,1.60000*%
G04:AMPARAMS|DCode=18|XSize=1.6mm|YSize=1.6mm|CornerRadius=0.4mm|HoleSize=0mm|Usage=FLASHONLY|Rotation=0.000|XOffset=0mm|YOffset=0mm|HoleType=Round|Shape=RoundedRectangle|*
%AMROUNDEDRECTD18*
21,1,1.60000,0.80000,0,0,0.0*
21,1,0.80000,1.60000,0,0,0.0*
1,1,0.80000,0.40000,-0.40000*
1,1,0.80000,-0.40000,-0.40000*
1,1,0.80000,-0.40000,0.40000*
1,1,0.80000,0.40000,0.40000*
%
%ADD18ROUNDEDRECTD18*%
G04:AMPARAMS|DCode=19|XSize=1.6mm|YSize=1.6mm|CornerRadius=0.4mm|HoleSize=0mm|Usage=FLASHONLY|Rotation=90.000|XOffset=0mm|YOffset=0mm|HoleType=Round|Shape=RoundedRectangle|*
%AMROUNDEDRECTD19*
21,1,1.60000,0.80000,0,0,90.0*
21,1,0.80000,1.60000,0,0,90.0*
1,1,0.80000,0.40000,0.40000*
1,1,0.80000,0.40000,-0.40000*
1,1,0.80000,-0.40000,-0.40000*
1,1,0.80000,-0.40000,0.40000*
%
%ADD19ROUNDEDRECTD19*%
%ADD20C,1.80000*%
%ADD21R,1.80000X1.80000*%
%ADD22R,1.80000X1.80000*%
%ADD23C,1.25000*%
%ADD24R,1.25000X1.25000*%
%ADD25R,1.20000X1.20000*%
%ADD26C,1.30000*%
%ADD27R,1.30000X1.30000*%
%ADD28R,1.30000X1.30000*%
%ADD29C,1.55000*%
%ADD30R,1.55000X1.55000*%
%TA.AperFunction,TestPad*%
%ADD31C,3.00000*%
G36*
X-225000Y8175000D02*
X15800000D01*
Y-450000D01*
X14400000Y-1850000D01*
X13725000Y-1175000D01*
X-975000D01*
Y-1150000D01*
X-1000000Y-1125000D01*
X-1863474Y9680765D01*
X-1772685Y9722685D01*
X-225000Y8175000D01*
D02*
G37*
%LPC*%
G36*
X11336193Y7640400D02*
X11333700D01*
Y7537700D01*
X11436400D01*
Y7540193D01*
X11428535Y7569543D01*
X11413343Y7595857D01*
X11391857Y7617343D01*
X11365543Y7632535D01*
X11336193Y7640400D01*
D02*
G37*
G36*
X11308300D02*
X11305807D01*
X11276457Y7632535D01*
X11250143Y7617343D01*
X11228657Y7595857D01*
X11213464Y7569543D01*
X11205600Y7540193D01*
Y7537700D01*
X11308300D01*
Y7640400D01*
D02*
G37*
G36*
X11944400D02*
X11713600D01*
Y7409600D01*
X11944400D01*
Y7640400D01*
D02*
G37*
G36*
X11436400Y7512300D02*
X11333700D01*
Y7409600D01*
X11336193D01*
X11365543Y7417464D01*
X11391857Y7432657D01*
X11413343Y7454143D01*
X11428535Y7480457D01*
X11436400Y7509807D01*
Y7512300D01*
D02*
G37*
G36*
X11308300D02*
X11205600D01*
Y7509807D01*
X11213464Y7480457D01*
X11228657Y7454143D01*
X11250143Y7432657D01*
X11276457Y7417464D01*
X11305807Y7409600D01*
X11308300D01*
Y7512300D01*
D02*
G37*
G36*
X915400Y6931400D02*
X734600D01*
Y6750600D01*
X915400D01*
Y6931400D01*
D02*
G37*
G36*
X836902Y6423400D02*
X813099D01*
X790107Y6417239D01*
X769493Y6405338D01*
X752662Y6388507D01*
X740761Y6367893D01*
X734600Y6344901D01*
Y6321099D01*
X740761Y6298107D01*
X752662Y6277493D01*
X769493Y6260662D01*
X790107Y6248761D01*
X813099Y6242600D01*
X836902D01*
X859893Y6248761D01*
X880507Y6260662D01*
X897338Y6277493D01*
X909239Y6298107D01*
X915400Y6321099D01*
Y6344901D01*
X909239Y6367893D01*
X897338Y6388507D01*
X880507Y6405338D01*
X859893Y6417239D01*
X836902Y6423400D01*
D02*
G37*
G36*
X3011000Y6405964D02*
X2931000D01*
X2913927Y6403717D01*
X2898018Y6397127D01*
X2884356Y6386644D01*
X2873873Y6372982D01*
X2867283Y6357073D01*
X2865036Y6340000D01*
Y6260000D01*
X2867283Y6242927D01*
X2873873Y6227018D01*
X2884356Y6213356D01*
X2898018Y6202873D01*
X2913927Y6196284D01*
X2931000Y6194036D01*
X3011000D01*
X3028073Y6196284D01*
X3043982Y6202873D01*
X3045071Y6203709D01*
X3075490Y6213757D01*
X3146106Y6215341D01*
X3167105Y6211721D01*
D01*
D01*
X3184317Y6201783D01*
X3211124Y6194600D01*
X3238876D01*
X3265683Y6201783D01*
X3289717Y6215659D01*
X3309341Y6235283D01*
X3317838Y6250000D01*
X3323217Y6259317D01*
X3330400Y6286124D01*
Y6313876D01*
X3323217Y6340683D01*
X3309341Y6364717D01*
X3289717Y6384341D01*
X3265683Y6398217D01*
X3238876Y6405400D01*
X3211124D01*
X3184317Y6398217D01*
X3167105Y6388280D01*
X3146106Y6384659D01*
X3076516Y6386220D01*
X3043982Y6397127D01*
X3028073Y6403717D01*
X3011000Y6405964D01*
D02*
G37*
G36*
X2035400Y5835400D02*
X1962701D01*
Y5762700D01*
X2035400D01*
Y5835400D01*
D02*
G37*
G36*
X1937301D02*
X1864600D01*
Y5762700D01*
X1937301D01*
Y5835400D01*
D02*
G37*
G36*
X836902Y5915400D02*
X813099D01*
X790107Y5909239D01*
X769493Y5897338D01*
X752662Y5880507D01*
X740761Y5859893D01*
X734600Y5836901D01*
Y5813099D01*
X740761Y5790107D01*
X752662Y5769493D01*
X769493Y5752662D01*
X790107Y5740761D01*
X813099Y5734600D01*
X836902D01*
X859893Y5740761D01*
X880507Y5752662D01*
X897338Y5769493D01*
X909239Y5790107D01*
X915400Y5813099D01*
Y5836901D01*
X909239Y5859893D01*
X897338Y5880507D01*
X880507Y5897338D01*
X859893Y5909239D01*
X836902Y5915400D01*
D02*
G37*
G36*
X2035400Y5737300D02*
X1950001D01*
X1864600D01*
Y5664600D01*
X1864600D01*
X1893200Y5576447D01*
D01*
X1893826Y5564600D01*
X1881663Y5552437D01*
X1870420Y5532963D01*
X1864600Y5511243D01*
Y5488757D01*
X1870420Y5467037D01*
X1881663Y5447563D01*
X1897563Y5431663D01*
X1917037Y5420420D01*
X1938757Y5414600D01*
X1961243D01*
X1982963Y5420420D01*
X2002437Y5431663D01*
X2018337Y5447563D01*
X2029580Y5467037D01*
X2035400Y5488757D01*
Y5511243D01*
X2029580Y5532963D01*
X2018337Y5552437D01*
X2006174Y5564600D01*
X2006800Y5576447D01*
X2035400Y5664600D01*
X2035400D01*
Y5737300D01*
D02*
G37*
G36*
X836902Y5407400D02*
X813099D01*
X790107Y5401239D01*
X769493Y5389338D01*
X752662Y5372507D01*
X740761Y5351893D01*
X734600Y5328901D01*
Y5305099D01*
X740761Y5282107D01*
X752662Y5261493D01*
X769493Y5244662D01*
X790107Y5232761D01*
X813099Y5226600D01*
X836902D01*
X859893Y5232761D01*
X880507Y5244662D01*
X897338Y5261493D01*
X909239Y5282107D01*
X915400Y5305099D01*
Y5328901D01*
X909239Y5351893D01*
X897338Y5372507D01*
X880507Y5389338D01*
X859893Y5401239D01*
X836902Y5407400D01*
D02*
G37*
G36*
X13863876Y5132400D02*
X13862700D01*
Y5039700D01*
X13955400D01*
Y5040876D01*
X13948216Y5067683D01*
X13934341Y5091717D01*
X13914717Y5111341D01*
X13890683Y5125217D01*
X13863876Y5132400D01*
D02*
G37*
G36*
X13837300D02*
X13836124D01*
X13809317Y5125217D01*
X13785283Y5111341D01*
X13773943Y5100000D01*
D01*
X13765659Y5091717D01*
X13751784Y5067683D01*
X13744600Y5040876D01*
Y5039700D01*
X13837300D01*
Y5132400D01*
D02*
G37*
G36*
X4067275Y5300400D02*
X4032725D01*
X3998838Y5293659D01*
X3966917Y5280437D01*
X3938189Y5261242D01*
X3913758Y5236811D01*
X3894563Y5208083D01*
X3881341Y5176162D01*
X3874600Y5142275D01*
Y5107725D01*
X3881341Y5073838D01*
X3894563Y5041917D01*
X3913758Y5013189D01*
X3938189Y4988758D01*
X3966917Y4969563D01*
X3998838Y4956341D01*
X4032725Y4949600D01*
X4067275D01*
X4101162Y4956341D01*
X4133083Y4969563D01*
X4161811Y4988758D01*
X4186242Y5013189D01*
X4205437Y5041917D01*
X4218659Y5073838D01*
X4225400Y5107725D01*
Y5142275D01*
X4218659Y5176162D01*
X4205437Y5208083D01*
X4186242Y5236811D01*
X4161811Y5261242D01*
X4133083Y5280437D01*
X4101162Y5293659D01*
X4067275Y5300400D01*
D02*
G37*
G36*
X13955400Y5014300D02*
X13850000D01*
X13744600D01*
Y5013124D01*
X13751784Y4986317D01*
X13761720Y4969105D01*
D01*
D01*
X13765341Y4948106D01*
D01*
D01*
X13763780Y4878516D01*
X13752873Y4845982D01*
D01*
X13746283Y4830073D01*
X13744035Y4813000D01*
Y4733000D01*
X13746283Y4715927D01*
X13752873Y4700018D01*
X13763356Y4686356D01*
X13777019Y4675873D01*
X13792928Y4669284D01*
X13810001Y4667036D01*
X13889999D01*
X13907072Y4669284D01*
X13922981Y4675873D01*
X13936644Y4686356D01*
X13947127Y4700018D01*
X13953717Y4715927D01*
X13955965Y4733000D01*
Y4813000D01*
X13953717Y4830073D01*
X13947127Y4845982D01*
X13936220Y4878516D01*
X13934659Y4948106D01*
X13938280Y4969105D01*
X13948216Y4986317D01*
X13955400Y5013124D01*
Y5014300D01*
D02*
G37*
G36*
X12687300Y4660400D02*
X12614600D01*
Y4587700D01*
X12687300D01*
Y4660400D01*
D02*
G37*
G36*
X12785400Y4660400D02*
Y4660400D01*
X12712700D01*
Y4575000D01*
Y4489600D01*
X12785400D01*
Y4489600D01*
X12873553Y4518200D01*
X12885400Y4518826D01*
X12897563Y4506663D01*
X12917036Y4495420D01*
X12938757Y4489600D01*
X12961243D01*
X12982964Y4495420D01*
X13002437Y4506663D01*
X13018336Y4522563D01*
X13029581Y4542037D01*
X13035400Y4563757D01*
Y4586243D01*
X13029581Y4607963D01*
X13018336Y4627437D01*
X13002437Y4643337D01*
X12982964Y4654580D01*
X12961243Y4660400D01*
X12938757D01*
X12917036Y4654580D01*
X12897563Y4643337D01*
X12885400Y4631174D01*
X12873553Y4631800D01*
X12785409Y4660397D01*
X12785400Y4660400D01*
D02*
G37*
G36*
X12687300Y4562300D02*
X12614600D01*
Y4489600D01*
X12687300D01*
Y4562300D01*
D02*
G37*
G36*
X1617275Y4775400D02*
X1582725D01*
X1548838Y4768659D01*
X1516917Y4755437D01*
X1488189Y4736242D01*
X1463758Y4711810D01*
X1444563Y4683083D01*
X1431341Y4651162D01*
X1424600Y4617275D01*
Y4582724D01*
X1431341Y4548837D01*
X1444563Y4516917D01*
X1463758Y4488189D01*
X1488189Y4463758D01*
X1516917Y4444562D01*
X1548838Y4431340D01*
X1582725Y4424600D01*
X1617275D01*
X1651162Y4431340D01*
X1683083Y4444562D01*
X1711811Y4463758D01*
X1736242Y4488189D01*
X1755437Y4516917D01*
X1768659Y4548837D01*
X1775400Y4582724D01*
Y4617275D01*
X1768659Y4651162D01*
X1755437Y4683083D01*
X1736242Y4711810D01*
X1711811Y4736242D01*
X1683083Y4755437D01*
X1651162Y4768659D01*
X1617275Y4775400D01*
D02*
G37*
G36*
X665400Y4344400D02*
X562700D01*
Y4241700D01*
X665400D01*
Y4344400D01*
D02*
G37*
G36*
X537300D02*
X434600D01*
Y4241700D01*
X537300D01*
Y4344400D01*
D02*
G37*
G36*
X5467275Y4500400D02*
X5432725D01*
X5398838Y4493659D01*
X5366917Y4480437D01*
X5338189Y4461242D01*
X5313758Y4436811D01*
X5294563Y4408083D01*
X5281341Y4376162D01*
X5274600Y4342275D01*
Y4307724D01*
X5281341Y4273838D01*
X5294563Y4241917D01*
X5313758Y4213189D01*
X5338189Y4188758D01*
X5366917Y4169562D01*
X5398838Y4156340D01*
X5432725Y4149600D01*
X5467275D01*
X5501162Y4156340D01*
X5533083Y4169562D01*
X5561811Y4188758D01*
X5586242Y4213189D01*
X5605437Y4241917D01*
X5618659Y4273838D01*
X5625400Y4307724D01*
Y4342275D01*
X5618659Y4376162D01*
X5605437Y4408083D01*
X5586242Y4436811D01*
X5561811Y4461242D01*
X5533083Y4480437D01*
X5501162Y4493659D01*
X5467275Y4500400D01*
D02*
G37*
G36*
X665400Y4216300D02*
X562700D01*
Y4113600D01*
X665400D01*
Y4216300D01*
D02*
G37*
G36*
X537300D02*
X434600D01*
Y4113600D01*
X537300D01*
Y4216300D01*
D02*
G37*
G36*
X565193Y3836400D02*
X534807D01*
X505457Y3828535D01*
X479143Y3813343D01*
X457657Y3791857D01*
X442464Y3765543D01*
X434600Y3736193D01*
Y3705807D01*
X442464Y3676457D01*
X457657Y3650143D01*
X479143Y3628657D01*
X505457Y3613464D01*
X534807Y3605600D01*
X565193D01*
X594543Y3613464D01*
X620857Y3628657D01*
X642343Y3650143D01*
X657535Y3676457D01*
X665400Y3705807D01*
Y3736193D01*
X657535Y3765543D01*
X642343Y3791857D01*
X620857Y3813343D01*
X594543Y3828535D01*
X565193Y3836400D01*
D02*
G37*
G36*
X2338547Y3727900D02*
X2311453D01*
X2285282Y3720888D01*
X2261818Y3707341D01*
X2242659Y3688182D01*
X2229112Y3664718D01*
X2222100Y3638547D01*
Y3611453D01*
X2229112Y3585282D01*
X2242659Y3561818D01*
X2261818Y3542660D01*
X2285282Y3529113D01*
X2311453Y3522100D01*
X2338547D01*
X2364718Y3529113D01*
X2388182Y3542660D01*
X2407340Y3561818D01*
X2420887Y3585282D01*
X2427900Y3611453D01*
Y3638547D01*
X2420887Y3664718D01*
X2407340Y3688182D01*
X2388182Y3707341D01*
X2364718Y3720888D01*
X2338547Y3727900D01*
D02*
G37*
G36*
X12687300Y3535400D02*
X12614600D01*
Y3462700D01*
X12687300D01*
Y3535400D01*
D02*
G37*
G36*
X12785400Y3535400D02*
Y3535400D01*
X12712700D01*
Y3450000D01*
Y3364600D01*
X12785400D01*
Y3364600D01*
X12873553Y3393200D01*
X12885400Y3393826D01*
X12897563Y3381663D01*
X12917036Y3370420D01*
X12938757Y3364600D01*
X12961243D01*
X12982964Y3370420D01*
X13002437Y3381663D01*
X13018336Y3397563D01*
X13029581Y3417037D01*
X13035400Y3438757D01*
Y3461243D01*
X13029581Y3482963D01*
X13018336Y3502437D01*
X13002437Y3518337D01*
X12982964Y3529580D01*
X12961243Y3535400D01*
X12938757D01*
X12917036Y3529580D01*
X12897563Y3518337D01*
X12885400Y3506174D01*
X12873553Y3506800D01*
X12785409Y3535397D01*
X12785400Y3535400D01*
D02*
G37*
G36*
X12687300Y3437300D02*
X12614600D01*
Y3364600D01*
X12687300D01*
Y3437300D01*
D02*
G37*
G36*
X2427900Y3227900D02*
X2337699D01*
Y3137700D01*
X2427900D01*
Y3227900D01*
D02*
G37*
G36*
X2312299D02*
X2222100D01*
Y3137700D01*
X2312299D01*
Y3227900D01*
D02*
G37*
G36*
X13889999Y3382964D02*
X13810001D01*
X13792928Y3380717D01*
X13777019Y3374127D01*
X13763356Y3363644D01*
X13752873Y3349982D01*
X13746283Y3334073D01*
X13744035Y3317000D01*
Y3237000D01*
X13746283Y3219927D01*
X13752873Y3204018D01*
X13763780Y3171484D01*
X13765341Y3101894D01*
X13761720Y3080895D01*
X13751784Y3063683D01*
X13744600Y3036876D01*
Y3035700D01*
X13850000D01*
X13955400D01*
Y3036876D01*
X13948216Y3063683D01*
X13938280Y3080895D01*
X13934659Y3101894D01*
X13936220Y3171484D01*
X13947127Y3204018D01*
X13953717Y3219927D01*
X13955965Y3237000D01*
Y3317000D01*
X13953717Y3334073D01*
X13947127Y3349982D01*
X13936644Y3363644D01*
X13922981Y3374127D01*
X13907072Y3380717D01*
X13889999Y3382964D01*
D02*
G37*
G36*
X2427900Y3112300D02*
X2337699D01*
Y3022100D01*
X2427900D01*
Y3112300D01*
D02*
G37*
G36*
X2312299D02*
X2222100D01*
Y3022100D01*
X2312299D01*
Y3112300D01*
D02*
G37*
G36*
X1442275Y3350400D02*
X1407725D01*
X1373838Y3343659D01*
X1341917Y3330437D01*
X1313189Y3311242D01*
X1288758Y3286811D01*
X1269563Y3258083D01*
X1256341Y3226162D01*
X1249600Y3192275D01*
Y3157724D01*
X1256341Y3123838D01*
X1269563Y3091917D01*
X1288758Y3063189D01*
X1313189Y3038758D01*
X1341917Y3019562D01*
X1373838Y3006340D01*
X1407725Y2999600D01*
X1442275D01*
X1476162Y3006340D01*
X1508083Y3019562D01*
X1536811Y3038758D01*
X1561242Y3063189D01*
X1580437Y3091917D01*
X1593659Y3123838D01*
X1600400Y3157724D01*
Y3192275D01*
X1593659Y3226162D01*
X1580437Y3258083D01*
X1561242Y3286811D01*
X1536811Y3311242D01*
X1508083Y3330437D01*
X1476162Y3343659D01*
X1442275Y3350400D01*
D02*
G37*
G36*
X4667275Y3325400D02*
X4632725D01*
X4598838Y3318659D01*
X4566917Y3305437D01*
X4538189Y3286242D01*
X4513758Y3261811D01*
X4494563Y3233083D01*
X4481341Y3201162D01*
X4474600Y3167275D01*
Y3132724D01*
X4481341Y3098838D01*
X4494563Y3066917D01*
X4513758Y3038189D01*
X4538189Y3013758D01*
X4566917Y2994562D01*
X4598838Y2981340D01*
X4632725Y2974600D01*
X4667275D01*
X4701162Y2981340D01*
X4733083Y2994562D01*
X4761811Y3013758D01*
X4786242Y3038189D01*
X4805437Y3066917D01*
X4818659Y3098838D01*
X4825400Y3132724D01*
Y3167275D01*
X4818659Y3201162D01*
X4805437Y3233083D01*
X4786242Y3261811D01*
X4761811Y3286242D01*
X4733083Y3305437D01*
X4701162Y3318659D01*
X4667275Y3325400D01*
D02*
G37*
G36*
X13955400Y3010300D02*
X13862700D01*
Y2917600D01*
X13863876D01*
X13890683Y2924783D01*
X13914717Y2938659D01*
X13934341Y2958283D01*
X13948216Y2982317D01*
X13955400Y3009124D01*
Y3010300D01*
D02*
G37*
G36*
X13837300D02*
X13744600D01*
Y3009124D01*
X13747681Y2997628D01*
X13751784Y2982317D01*
X13765659Y2958283D01*
X13785283Y2938659D01*
X13809317Y2924783D01*
X13836124Y2917600D01*
X13837300D01*
Y3010300D01*
D02*
G37*
G36*
X3686243Y2935400D02*
X3663757D01*
X3642037Y2929580D01*
X3622563Y2918337D01*
X3606663Y2902437D01*
X3595420Y2882963D01*
X3589600Y2861243D01*
Y2838757D01*
X3595420Y2817037D01*
X3606663Y2797563D01*
X3618826Y2785400D01*
X3618200Y2773554D01*
X3589600Y2685400D01*
X3589600D01*
Y2612700D01*
X3675000D01*
X3760400D01*
Y2685400D01*
X3760400D01*
X3731800Y2773554D01*
X3731174Y2785400D01*
X3743337Y2797563D01*
X3754580Y2817037D01*
X3760400Y2838757D01*
Y2861243D01*
X3754580Y2882963D01*
X3743337Y2902437D01*
X3727437Y2918337D01*
X3707963Y2929580D01*
X3686243Y2935400D01*
D02*
G37*
G36*
X460400Y2905400D02*
X239600D01*
Y2684600D01*
X460400D01*
Y2905400D01*
D02*
G37*
G36*
X3760400Y2587300D02*
X3687700D01*
Y2514600D01*
X3760400D01*
Y2587300D01*
D02*
G37*
G36*
X3662300D02*
X3589600D01*
Y2514600D01*
X3662300D01*
Y2587300D01*
D02*
G37*
G36*
X764534Y2735400D02*
X735466D01*
X707387Y2727876D01*
X682213Y2713342D01*
X661658Y2692787D01*
X647124Y2667613D01*
X639600Y2639534D01*
Y2610466D01*
X647124Y2582387D01*
X661658Y2557213D01*
X682213Y2536658D01*
X707387Y2522124D01*
X735466Y2514600D01*
X764534D01*
X792613Y2522124D01*
X817787Y2536658D01*
X838342Y2557213D01*
X852876Y2582387D01*
X860400Y2610466D01*
Y2639534D01*
X852876Y2667613D01*
X838342Y2692787D01*
X817787Y2713342D01*
X792613Y2727876D01*
X764534Y2735400D01*
D02*
G37*
G36*
X364534Y2565400D02*
X362700D01*
Y2467700D01*
X460400D01*
Y2469535D01*
X452876Y2497613D01*
X438342Y2522787D01*
X417787Y2543342D01*
X392613Y2557877D01*
X364534Y2565400D01*
D02*
G37*
G36*
X337300D02*
X335466D01*
X307387Y2557877D01*
X282213Y2543342D01*
X261658Y2522787D01*
X247124Y2497613D01*
X239600Y2469535D01*
Y2467700D01*
X337300D01*
Y2565400D01*
D02*
G37*
G36*
X460400Y2442300D02*
X362700D01*
Y2344600D01*
X364534D01*
X392613Y2352124D01*
X417787Y2366658D01*
X438342Y2387213D01*
X452876Y2412387D01*
X460400Y2440466D01*
Y2442300D01*
D02*
G37*
G36*
X337300D02*
X239600D01*
Y2440466D01*
X247124Y2412387D01*
X261658Y2387213D01*
X282213Y2366658D01*
X307387Y2352124D01*
X335466Y2344600D01*
X337300D01*
Y2442300D01*
D02*
G37*
G36*
X2487231Y2392900D02*
X2462770D01*
X2439142Y2386569D01*
X2417958Y2374338D01*
X2400662Y2357042D01*
X2388431Y2335858D01*
X2382100Y2312231D01*
Y2287769D01*
X2388431Y2264142D01*
X2400662Y2242958D01*
X2417958Y2225662D01*
X2439142Y2213431D01*
X2462770Y2207100D01*
X2487231D01*
X2510858Y2213431D01*
X2532042Y2225662D01*
X2549339Y2242958D01*
X2561569Y2264142D01*
X2567900Y2287769D01*
Y2312231D01*
X2561569Y2335858D01*
X2549339Y2357042D01*
X2532042Y2374338D01*
X2510858Y2386569D01*
X2487231Y2392900D01*
D02*
G37*
G36*
X1987231D02*
X1962770D01*
X1939142Y2386569D01*
X1917958Y2374338D01*
X1900662Y2357042D01*
X1888431Y2335858D01*
X1882100Y2312231D01*
Y2287769D01*
X1888431Y2264142D01*
X1900662Y2242958D01*
X1917958Y2225662D01*
X1939142Y2213431D01*
X1962770Y2207100D01*
X1987231D01*
X2010858Y2213431D01*
X2032042Y2225662D01*
X2049339Y2242958D01*
X2061569Y2264142D01*
X2067900Y2287769D01*
Y2312231D01*
X2061569Y2335858D01*
X2049339Y2357042D01*
X2032042Y2374338D01*
X2010858Y2386569D01*
X1987231Y2392900D01*
D02*
G37*
G36*
X764534Y2395400D02*
X735466D01*
X707387Y2387877D01*
X682213Y2373342D01*
X661658Y2352788D01*
X647124Y2327613D01*
X639600Y2299535D01*
Y2270466D01*
X647124Y2242387D01*
X661658Y2217213D01*
X682213Y2196658D01*
X707387Y2182124D01*
X735466Y2174600D01*
X764534D01*
X792613Y2182124D01*
X817787Y2196658D01*
X838342Y2217213D01*
X852876Y2242387D01*
X860400Y2270466D01*
Y2299535D01*
X852876Y2327613D01*
X838342Y2352788D01*
X817787Y2373342D01*
X792613Y2387877D01*
X764534Y2395400D01*
D02*
G37*
G36*
X364534Y2225400D02*
X362700D01*
Y2127700D01*
X460400D01*
Y2129534D01*
X452876Y2157613D01*
X438342Y2182787D01*
X417787Y2203342D01*
X392613Y2217876D01*
X364534Y2225400D01*
D02*
G37*
G36*
X337300D02*
X335466D01*
X307387Y2217876D01*
X282213Y2203342D01*
X261658Y2182787D01*
X247124Y2157613D01*
X239600Y2129534D01*
Y2127700D01*
X337300D01*
Y2225400D01*
D02*
G37*
G36*
X460400Y2102300D02*
X362700D01*
Y2004600D01*
X364534D01*
X392613Y2012124D01*
X417787Y2026658D01*
X438342Y2047213D01*
X452876Y2072387D01*
X460400Y2100466D01*
Y2102300D01*
D02*
G37*
G36*
X337300D02*
X239600D01*
Y2100466D01*
X247124Y2072387D01*
X261658Y2047213D01*
X282213Y2026658D01*
X307387Y2012124D01*
X335466Y2004600D01*
X337300D01*
Y2102300D01*
D02*
G37*
G36*
X1187900Y1537900D02*
X1012100D01*
Y1362100D01*
X1187900D01*
Y1537900D01*
D02*
G37*
G36*
X486572D02*
X463428D01*
X441072Y1531910D01*
X421028Y1520338D01*
X404663Y1503972D01*
X393090Y1483928D01*
X387100Y1461572D01*
Y1438428D01*
X393090Y1416072D01*
X404663Y1396028D01*
X421028Y1379663D01*
X441072Y1368090D01*
X463428Y1362100D01*
X486572D01*
X508928Y1368090D01*
X528972Y1379663D01*
X545337Y1396028D01*
X556910Y1416072D01*
X562900Y1438428D01*
Y1461572D01*
X556910Y1483928D01*
X545337Y1503972D01*
X528972Y1520338D01*
X508928Y1531910D01*
X486572Y1537900D01*
D02*
G37*
G36*
X1815400Y1540400D02*
X1634600D01*
Y1359600D01*
X1815400D01*
Y1540400D01*
D02*
G37*
G36*
X11840193Y590400D02*
X11837700D01*
Y487700D01*
X11940400D01*
Y490193D01*
X11932535Y519543D01*
X11917343Y545857D01*
X11895857Y567343D01*
X11869543Y582536D01*
X11840193Y590400D01*
D02*
G37*
G36*
X11812300D02*
X11809807D01*
X11780457Y582536D01*
X11754143Y567343D01*
X11732657Y545857D01*
X11717464Y519543D01*
X11709600Y490193D01*
Y487700D01*
X11812300D01*
Y590400D01*
D02*
G37*
G36*
X562900Y537900D02*
X487700D01*
Y462700D01*
X562900D01*
Y537900D01*
D02*
G37*
G36*
X462300D02*
X387100D01*
Y462700D01*
X462300D01*
Y537900D01*
D02*
G37*
G36*
X1111572D02*
X1088428D01*
X1066072Y531910D01*
X1046028Y520338D01*
X1029663Y503972D01*
X1018090Y483928D01*
X1012100Y461572D01*
Y438428D01*
X1018090Y416072D01*
X1029663Y396028D01*
X1046028Y379663D01*
X1066072Y368090D01*
X1088428Y362100D01*
X1111572D01*
X1133928Y368090D01*
X1153972Y379663D01*
X1170338Y396028D01*
X1181910Y416072D01*
X1184302Y425000D01*
D01*
X1187900Y438428D01*
Y461572D01*
X1181910Y483928D01*
X1170338Y503972D01*
X1153972Y520338D01*
X1133928Y531910D01*
X1111572Y537900D01*
D02*
G37*
G36*
X562900Y437300D02*
X487700D01*
Y362100D01*
X562900D01*
Y425000D01*
Y437300D01*
D02*
G37*
G36*
X462300D02*
X387100D01*
Y362100D01*
X462300D01*
Y437300D01*
D02*
G37*
G36*
X11940400Y462300D02*
X11837700D01*
Y359600D01*
X11840193D01*
X11869543Y367465D01*
X11895857Y382657D01*
X11917343Y404143D01*
X11932535Y430457D01*
X11940400Y459807D01*
Y462300D01*
D02*
G37*
G36*
X11812300D02*
X11709600D01*
Y459807D01*
X11717464Y430457D01*
X11732657Y404143D01*
X11754143Y382657D01*
X11780457Y367465D01*
X11809807Y359600D01*
X11812300D01*
Y462300D01*
D02*
G37*
G36*
X11432400Y590400D02*
X11201600D01*
Y359600D01*
X11432400D01*
Y590400D01*
D02*
G37*
G36*
X1736902Y540400D02*
X1713099D01*
X1690107Y534239D01*
X1669493Y522338D01*
X1652662Y505507D01*
X1640761Y484893D01*
X1634600Y461902D01*
Y438099D01*
X1640761Y415107D01*
X1652662Y394493D01*
X1669493Y377662D01*
X1690107Y365761D01*
X1713099Y359600D01*
X1736902D01*
X1759893Y365761D01*
X1780507Y377662D01*
X1797338Y394493D01*
X1809239Y415107D01*
X1815400Y438099D01*
Y461902D01*
X1809239Y484893D01*
X1797338Y505507D01*
X1780507Y522338D01*
X1759893Y534239D01*
X1736902Y540400D01*
D02*
G37*
%LPD*%
D12*
X2475000Y2300000D02*
D03*
X1975000D02*
D03*
D13*
X1950000Y5750000D02*
D03*
X3675000Y2600000D02*
D03*
D14*
X1950000Y5500000D02*
D03*
X12950000Y3450000D02*
D03*
Y4575000D02*
D03*
X3675000Y2850000D02*
D03*
D15*
X350000Y2115000D02*
D03*
X750000Y2285000D02*
D03*
X350000Y2455000D02*
D03*
X750000Y2625000D02*
D03*
D16*
X350000Y2795000D02*
D03*
D17*
X3225000Y6300000D02*
D03*
X13850000Y5027000D02*
D03*
Y3023000D02*
D03*
D18*
X2971000Y6300000D02*
D03*
D19*
X13850000Y4773000D02*
D03*
Y3277000D02*
D03*
D20*
X550000Y3721000D02*
D03*
X11321000Y7525000D02*
D03*
X11825000Y475000D02*
D03*
D21*
X550000Y4229000D02*
D03*
D22*
X11829000Y7525000D02*
D03*
X11317000Y475000D02*
D03*
D23*
X1100000Y450000D02*
D03*
X475000Y1450000D02*
D03*
D24*
X1100000D02*
D03*
X475000Y450000D02*
D03*
D25*
X12700000Y3450000D02*
D03*
Y4575000D02*
D03*
D26*
X825000Y5317000D02*
D03*
Y5825000D02*
D03*
Y6333000D02*
D03*
X1725000Y450000D02*
D03*
D27*
X825000Y6841000D02*
D03*
D28*
X1725000Y1450000D02*
D03*
D29*
X2325000Y3625000D02*
D03*
D30*
Y3125000D02*
D03*
D31*
X1600000Y4600000D02*
D03*
X1425000Y3175000D02*
D03*
X5450000Y4325000D02*
D03*
X4650000Y3150000D02*
D03*
X4050000Y5125000D02*
D03*
%TF.MD5,52258a7df9ff4a1d3469ac156db622bf*%
M02*
