%TF.GenerationSoftware,Altium Limited,Altium Designer,25.2.1 (25)*%
G04 Layer_Color=8388736*
%FSLAX45Y45*%
%MOMM*%
%TF.SameCoordinates,33AE00C6-E728-4630-B133-C83FF553AC26*%
%TF.FilePolarity,Negative*%
%TF.FileFunction,Soldermask,Top*%
%TF.Part,Single*%
G01*
G75*
%TA.AperFunction,ComponentPad*%
%ADD13R,1.20000X1.20000*%
%ADD14C,1.20000*%
%ADD23C,1.25000*%
%ADD24R,1.25000X1.25000*%
%ADD25R,1.20000X1.20000*%
%ADD26C,1.30000*%
%ADD27R,1.30000X1.30000*%
%ADD28R,1.30000X1.30000*%
%ADD29C,1.55000*%
%ADD30R,1.55000X1.55000*%
%ADD38C,1.55320*%
%ADD39C,1.90320*%
%ADD40R,1.90320X1.90320*%
%ADD41C,1.80320*%
G04:AMPARAMS|DCode=42|XSize=1.8032mm|YSize=1.8032mm|CornerRadius=0.5016mm|HoleSize=0mm|Usage=FLASHONLY|Rotation=0.000|XOffset=0mm|YOffset=0mm|HoleType=Round|Shape=RoundedRectangle|*
%AMROUNDEDRECTD42*
21,1,1.80320,0.80000,0,0,0.0*
21,1,0.80000,1.80320,0,0,0.0*
1,1,1.00320,0.40000,-0.40000*
1,1,1.00320,-0.40000,-0.40000*
1,1,1.00320,-0.40000,0.40000*
1,1,1.00320,0.40000,0.40000*
%
%ADD42ROUNDEDRECTD42*%
G04:AMPARAMS|DCode=43|XSize=1.8032mm|YSize=1.8032mm|CornerRadius=0.5016mm|HoleSize=0mm|Usage=FLASHONLY|Rotation=90.000|XOffset=0mm|YOffset=0mm|HoleType=Round|Shape=RoundedRectangle|*
%AMROUNDEDRECTD43*
21,1,1.80320,0.80000,0,0,90.0*
21,1,0.80000,1.80320,0,0,90.0*
1,1,1.00320,0.40000,0.40000*
1,1,1.00320,0.40000,-0.40000*
1,1,1.00320,-0.40000,-0.40000*
1,1,1.00320,-0.40000,0.40000*
%
%ADD43ROUNDEDRECTD43*%
%ADD44C,2.00320*%
%ADD45R,2.00320X2.00320*%
%ADD46R,2.00320X2.00320*%
%TA.AperFunction,ViaPad*%
%ADD47C,1.47320*%
D13*
X1950000Y5750000D02*
D03*
X3675000Y2600000D02*
D03*
D14*
X1950000Y5500000D02*
D03*
X12950000Y3450000D02*
D03*
Y4575000D02*
D03*
X3675000Y2850000D02*
D03*
D23*
X1100000Y450000D02*
D03*
X475000Y1450000D02*
D03*
D24*
X1100000D02*
D03*
X475000Y450000D02*
D03*
D25*
X12700000Y3450000D02*
D03*
Y4575000D02*
D03*
D26*
X825000Y5317000D02*
D03*
Y5825000D02*
D03*
Y6333000D02*
D03*
X1725000Y450000D02*
D03*
D27*
X825000Y6841000D02*
D03*
D28*
X1725000Y1450000D02*
D03*
D29*
X2100000Y3625000D02*
D03*
D30*
Y3125000D02*
D03*
D38*
X2325000Y2300000D02*
D03*
X1825000D02*
D03*
D39*
X450000Y2115000D02*
D03*
X850000Y2285000D02*
D03*
X450000Y2455000D02*
D03*
X850000Y2625000D02*
D03*
D40*
X450000Y2795000D02*
D03*
D41*
X3225000Y6300000D02*
D03*
X13850000Y5027000D02*
D03*
Y3023000D02*
D03*
D42*
X2971000Y6300000D02*
D03*
D43*
X13850000Y4773000D02*
D03*
Y3277000D02*
D03*
D44*
X550000Y3721000D02*
D03*
X11321000Y7525000D02*
D03*
X11825000Y475000D02*
D03*
D45*
X550000Y4229000D02*
D03*
D46*
X11829000Y7525000D02*
D03*
X11317000Y475000D02*
D03*
D47*
X13575000Y3175000D02*
D03*
X13500000Y4800000D02*
D03*
X800000Y4225000D02*
D03*
X3225000Y2575000D02*
D03*
X11475000Y3800000D02*
D03*
X10925000Y5000000D02*
D03*
X12075000Y4400000D02*
D03*
Y3725000D02*
D03*
X775000Y425000D02*
D03*
X175000Y2675000D02*
D03*
X2450000Y3150000D02*
D03*
X2725000Y5700000D02*
D03*
%TF.MD5,50e474d26d5b5795b37c3cadf7a6abfe*%
M02*
